<svg xmlns="http://www.w3.org/2000/svg"  viewBox="0 0 100 100" width="100px" height="100px"><path d="M66.965,71H100v4H60.207	C62.661,74,64.934,72.64,66.965,71z M0.001,75v-4h50.014c11.583-0.013,20.985-9.413,20.985-21s-9.408-21-21-21s-21,9.413-21,21	c0,8.387,4.931,15.64,12.052,19h-7.297c-5.359-4.587-8.755-11.4-8.755-19c0-13.8,11.197-25,25-25c13.8,0,25,11.2,25,25	s-11.2,25-25,25H0.001z M39.001,59V45c0-0.547,0.448-1,1-1h4c0.551,0,1,0.453,1,1v14c0,0.547-0.449,1-1,1h-4	C39.449,60,39.001,59.547,39.001,59z M47.001,59V45c0-0.547,0.448-1,1-1h4c0.483,0,0.885,0.347,0.979,0.8l0.016,0.173l0.275-0.187	C54.15,44.28,55.163,44,56.211,44c3.216,0,5.789,2.667,5.789,5.893V59c0,0.547-0.449,1-1,1h-4c-0.552,0-1-0.453-1-1v-7	c0-0.787-0.725-1.507-1.499-1.507c-0.804,0-1.501,0.693-1.501,1.453V59c0,0.547-0.449,1-1,1h-4C47.449,60,47.001,59.547,47.001,59z M43.001,58V46h-2v12H43.001z M51.001,58v-6.053c0-1.933,1.661-3.453,3.501-3.453c1.865,0,3.499,1.6,3.499,3.507v6h2v-8.107	c0-2.16-1.721-3.893-3.789-3.893c-1.389,0-2.695,0.773-3.351,1.88c-0.515,0.88-1.863,0.507-1.861-0.507V46h-1.999v12H51.001z M39.001,40c0-1.653,1.343-3,3-3c1.656,0,2.999,1.347,2.999,3s-1.344,3-2.999,3C40.343,43,39.001,41.653,39.001,40z M42.999,40	c0-0.547-0.451-1-0.999-1c-0.552,0-1,0.453-1,1s0.448,1,1,1C42.55,41,42.999,40.547,42.999,40z"/></svg>